<?xml version="1.0" encoding="UTF-8" standalone="no"?>
<svg width="340px" height="180px" viewBox="0 0 340 180" version="1.1" xmlns="http://www.w3.org/2000/svg" xmlns:xlink="http://www.w3.org/1999/xlink">
    <defs></defs>
    <g id="Page-1" stroke="none" stroke-width="1" fill="none" fill-rule="evenodd">
        <path d="M170,120 L145,70 L120,120 L110.001463,100.002927 L110.001467,100.002922 C100.879269,112.145727 86.3568662,120 70,120 C42.3857625,120 20,97.6142375 20,70 C20,42.3857625 42.3857625,20 70,20 L145,20 L205,20 L250,20 L240,40 L210,40 L210,40 L200,60 L200,60 L240,60 L230,80 L190,80 L180,100 L230,100 L220,120 L170,120 Z M70.5,91 C81.8218374,91 91,81.8218374 91,70.5 C91,59.1781626 81.8218374,50 70.5,50 C59.1781626,50 50,59.1781626 50,70.5 C50,81.8218374 59.1781626,91 70.5,91 Z M120,60 L140,20 L100,20 L120,60 Z M170,60 L190,20 L150,20 L170,60 Z" id="owe" fill="#C42C2D"></path>
        <text id="js" font-family="SignPainter" font-size="144" font-weight="normal" fill="#C42C2D">
            <tspan x="244.44" y="118">js</tspan>
        </text>
    </g>
</svg>