<svg xmlns="http://www.w3.org/2000/svg" width="180" height="180" viewBox="0 0 180 180">
  <path fill="#C42C2D" fill-rule="evenodd" d="M111,123 L96,93 L81,123 L75.000878,111.001756 C69.5275613,118.287436 60.8141197,123 51,123 C34.4314575,123 21,109.568542 21,93 C21,76.4314575 34.4314575,63 51,63 L93,63 L96,57 L99,63 L132,63 L159,63 L153,75 L135,75 L129,87 L153,87 L147,99 L123,99 L117,111 L147,111 L141,123 L111,123 Z M90,180 C139.705627,180 180,139.705627 180,90 C180,40.2943725 139.705627,0 90,0 C40.2943725,0 -1.77635684e-15,40.2943725 -1.77635684e-15,90 C-1.77635684e-15,139.705627 40.2943725,180 90,180 Z M51,105 C57.627417,105 63,99.627417 63,93 C63,86.372583 57.627417,81 51,81 C44.372583,81 39,86.372583 39,93 C39,99.627417 44.372583,105 51,105 Z M81,87 L93,63 L69,63 L81,87 Z M111,87 L123,63 L99,63 L111,87 Z"/>
</svg>
