<?xml version="1.0" encoding="UTF-8" standalone="no"?>
<svg width="340px" height="180px" viewBox="0 0 340 180" version="1.1" xmlns="http://www.w3.org/2000/svg" xmlns:xlink="http://www.w3.org/1999/xlink">
    <defs></defs>
    <g id="Page-1" stroke="none" stroke-width="1" fill="none" fill-rule="evenodd">
        <path d="M170,120 L145,70 L120,120 L110.001463,100.002927 L110.001467,100.002922 C100.879269,112.145727 86.3568662,120 70,120 C42.3857625,120 20,97.6142375 20,70 C20,42.3857625 42.3857625,20 70,20 L140,20 L140,20 L145,10 L150,20 L205,20 L250,20 L240,40 L210,40 L210,40 L200,60 L200,60 L240,60 L230,80 L190,80 L180,100 L230,100 L220,120 L170,120 Z M70,90 C81.045695,90 90,81.045695 90,70 C90,58.954305 81.045695,50 70,50 C58.954305,50 50,58.954305 50,70 C50,81.045695 58.954305,90 70,90 Z M120,60 L140,20 L100,20 L120,60 Z M170,60 L190,20 L150,20 L170,60 Z" id="owe" fill="#C42C2D"></path>
        <text id="js" font-family="SignPainter" font-size="144" font-weight="normal" fill="#C42C2D">
            <tspan x="244.44" y="118">js</tspan>
        </text>
    </g>
</svg>