<svg xmlns="http://www.w3.org/2000/svg" width="180" height="180" viewBox="0 0 180 180">
  <path fill="#C42C2D" fill-rule="evenodd" d="M159.297411,130.000022 C145.465032,153.912065 119.611285,170 90,170 C54.6643408,170 24.6794399,147.09068 14.0879479,115.314691 C20.8213051,124.228656 31.5781358,130 43.6987936,130 C55.7797728,130 66.5058398,124.266381 73.2433799,115.402137 L80.6281755,130 L99.0928664,93.5 L117.557557,130 L159.297424,130 Z M166.016215,115 C167.496409,110.496595 168.587576,105.816677 169.249961,101 L132.32931,101 L125.145787,115 L166.016215,115 Z M169.90174,86 C169.665897,81.2104904 169.008852,76.531735 167.966872,72 L146.89871,72 L139.816363,86 L169.90174,86 Z M162.898163,56.9999969 C150.330131,29.280717 122.416692,10 90,10 C50.5353506,10 17.7449967,38.5760566 11.1918841,76.1652242 C17.4349869,64.7526158 29.6508794,57 43.6987936,57 L95.4589208,57 L99.0928664,50 L102.726812,57 L162.89818,57 Z M43.6987936,108.069912 C51.8570073,108.069912 58.4705463,101.524289 58.4705463,93.4498535 C58.4705463,85.3754181 51.8570073,78.8297949 43.6987936,78.8297949 C35.5405798,78.8297949 28.9270408,85.3754181 28.9270408,93.4498535 C28.9270408,101.524289 35.5405798,108.069912 43.6987936,108.069912 Z M80.6281755,86.5 L95.3999282,57 L65.8564227,57 L80.6281755,86.5 Z M117.557557,86.5 L132.32931,57 L102.785805,57 L117.557557,86.5 Z"/>
</svg>
